<?xml version="1.0" standalone="no"?>
<!DOCTYPE svg PUBLIC "-//W3C//DTD SVG 20010904//EN"
 "http://www.w3.org/TR/2001/REC-SVG-20010904/DTD/svg10.dtd">
<svg version="1.0" xmlns="http://www.w3.org/2000/svg"
 width="1440.000000pt" height="1440.000000pt" viewBox="0 0 1440.000000 1440.000000"
 preserveAspectRatio="xMidYMid meet">
<metadata>
Created by potrace 1.14, written by Peter Selinger 2001-2017
</metadata>
<g transform="translate(0.000000,1440.000000) scale(0.100000,-0.100000)"
fill="#000000" stroke="none">
<path d="M0 10541 l0 -738 68 -2 c37 -1 155 -3 262 -5 107 -2 207 -4 221 -5
29 -1 79 -47 103 -94 9 -17 27 -48 39 -68 12 -19 48 -78 80 -130 32 -52 62
-101 67 -109 63 -102 127 -208 133 -220 4 -8 15 -27 25 -42 70 -111 172 -281
172 -289 0 -5 5 -9 10 -9 6 0 10 -7 10 -15 0 -8 5 -15 10 -15 6 0 10 -4 10
-10 0 -9 118 -208 130 -220 3 -3 11 -16 19 -30 8 -14 70 -117 139 -230 69
-113 132 -217 141 -232 9 -15 51 -84 94 -154 42 -69 77 -130 77 -135 0 -5 5
-9 10 -9 6 0 10 -7 10 -15 0 -8 3 -15 8 -15 4 0 13 -14 20 -30 8 -17 19 -36
25 -43 7 -7 19 -26 28 -42 9 -17 59 -101 112 -188 54 -87 97 -162 97 -168 0
-5 4 -9 8 -9 5 0 17 -18 28 -40 10 -22 22 -40 27 -40 4 0 7 -4 7 -9 0 -5 14
-32 31 -60 l32 -51 933 0 c740 0 934 3 935 13 1 6 2 353 2 770 1 499 -1 757
-8 758 -5 0 -139 0 -297 1 l-287 0 -50 31 c-37 23 -54 41 -62 67 -11 32 -94
175 -254 435 -34 55 -64 107 -68 115 -4 8 -25 44 -47 79 -22 34 -40 65 -40 67
0 2 -7 12 -15 21 -8 10 -15 23 -16 28 0 6 -6 17 -13 25 -11 13 -32 46 -101
162 -5 9 -25 43 -44 75 -19 32 -38 60 -43 61 -4 2 -8 7 -8 12 0 7 -39 78 -70
125 -18 28 -83 136 -90 150 -3 6 -17 29 -32 52 -16 24 -28 47 -28 53 0 5 -3
10 -7 10 -5 0 -24 29 -43 65 -19 36 -38 65 -42 65 -5 0 -8 4 -8 8 0 5 -50 91
-110 191 -60 100 -110 186 -110 192 0 5 -3 9 -8 9 -4 0 -12 9 -17 20 -6 11
-59 102 -120 201 -60 100 -119 198 -130 218 -11 20 -23 38 -26 41 -3 3 -16 24
-29 48 l-24 42 -938 0 -938 0 0 -739z"/>
<path d="M3690 10105 l0 -1175 178 -1 c162 -1 204 0 209 5 1 1 4 58 8 126 15
328 18 361 50 583 11 80 55 256 86 347 31 94 94 240 107 250 4 3 8 10 9 17 7
34 147 216 219 284 62 58 157 129 172 129 7 0 12 4 12 8 0 9 140 82 151 79 3
-1 12 3 20 9 11 9 67 31 99 39 3 1 12 5 20 8 18 8 170 43 225 52 l41 6 -1 202
0 202 -802 3 -803 2 0 -1175z"/>
<path d="M5561 11265 c-5 -8 -7 -4120 -2 -4182 1 -10 189 -13 906 -13 l905 0
0 2100 c0 1155 -3 2101 -7 2101 -5 1 -410 2 -901 3 -589 1 -896 -2 -901 -9z"/>
<path d="M7622 11088 c0 -206 2 -224 21 -226 72 -5 146 -20 272 -57 90 -26
121 -38 205 -79 24 -11 48 -20 52 -18 4 1 8 -2 8 -8 0 -5 5 -10 11 -10 11 0
113 -67 173 -114 101 -80 218 -228 284 -361 38 -77 92 -214 96 -245 1 -8 8
-35 15 -60 7 -25 15 -54 16 -65 2 -11 6 -31 9 -45 2 -14 7 -41 10 -60 3 -19 8
-46 10 -60 3 -14 7 -56 11 -95 3 -38 8 -88 10 -110 3 -22 8 -98 11 -170 3 -71
6 -146 7 -165 l2 -35 192 0 c125 -1 194 3 196 10 1 5 2 494 2 1085 l-1 1075
-806 3 -806 2 0 -192z"/>
<path d="M9701 11255 c-5 -8 -8 -4129 -2 -4181 1 -8 247 -11 904 -10 l902 1 2
2098 c1 1153 -1 2098 -5 2098 -4 1 -409 2 -900 3 -596 1 -896 -2 -901 -9z"/>
<path d="M0 8248 l0 -1176 503 4 c276 3 638 6 804 7 l303 2 1 65 c1 180 -1
324 -6 329 -3 2 -11 6 -18 7 -78 11 -172 34 -262 62 -27 9 -52 17 -55 17 -48
11 -210 96 -286 151 -70 49 -214 185 -214 201 0 6 -3 13 -8 15 -22 10 -141
196 -143 225 0 5 -6 15 -14 23 -21 24 -105 261 -110 310 -1 9 -7 31 -13 50
-19 62 -40 187 -57 345 -11 95 -14 140 -21 290 -7 153 -11 237 -13 245 -1 3
-89 5 -196 5 l-195 0 0 -1177z"/>
<path d="M13857 8422 c-14 -3 -36 -65 -26 -74 1 -2 -3 -12 -9 -24 -6 -11 -13
-32 -16 -45 -2 -13 -16 -51 -29 -84 -79 -190 -170 -307 -343 -445 -35 -27
-103 -70 -113 -70 -5 0 -11 -4 -13 -8 -9 -23 -259 -123 -398 -160 -85 -23
-260 -58 -335 -67 -27 -4 -61 -8 -75 -10 -24 -3 -113 -11 -211 -19 -59 -5
-360 -18 -459 -20 l-75 -2 0 -164 0 -165 1287 -1 1286 -1 -1 680 -2 680 -226
1 c-124 0 -233 0 -242 -2z"/>
<path d="M4966 6634 c-251 -46 -470 -182 -593 -371 -21 -32 -42 -61 -46 -64
-5 -3 -8 -9 -8 -13 1 -3 -10 -31 -24 -62 -65 -141 -91 -318 -71 -485 20 -175
123 -386 251 -514 111 -112 302 -207 465 -231 19 -3 49 -9 65 -13 32 -8 261
-7 310 2 17 3 50 8 75 12 86 13 254 66 334 107 45 22 83 43 86 47 3 3 21 18
40 32 84 63 99 83 94 125 -3 21 -9 43 -14 48 -14 14 -105 35 -108 25 -2 -5 -8
-7 -13 -3 -10 6 -80 -14 -89 -25 -24 -29 -310 -164 -310 -146 0 3 -8 1 -18 -4
-10 -5 -36 -12 -58 -15 -22 -4 -51 -9 -64 -11 -34 -7 -158 -7 -195 0 -100 19
-224 71 -285 120 -38 31 -134 128 -147 150 -45 74 -63 112 -86 176 -25 74 -41
173 -39 239 4 89 15 177 28 212 7 21 11 38 9 38 -9 0 46 122 77 171 74 116
210 217 328 245 19 4 42 10 50 12 34 10 266 11 309 1 67 -16 189 -78 223 -113
42 -44 69 -102 73 -155 8 -106 26 -135 92 -150 93 -20 148 -17 171 9 15 18 17
49 18 268 2 322 3 322 -133 322 -66 0 -113 -15 -113 -36 0 -20 -19 -27 -35
-14 -8 7 -15 10 -15 6 0 -3 -16 3 -35 14 -35 19 -93 36 -165 47 -87 12 -358
11 -434 -3z"/>
<path d="M13336 6643 c-2 -2 -19 -6 -37 -9 -40 -5 -111 -20 -116 -24 -2 -2 -6
-3 -10 -4 -201 -45 -442 -248 -531 -448 -19 -43 -55 -144 -58 -163 -1 -5 -3
-12 -4 -15 -28 -75 -32 -320 -5 -435 1 -5 5 -28 10 -50 23 -112 101 -256 186
-345 55 -56 197 -160 219 -160 6 0 27 -9 48 -19 20 -10 42 -20 47 -21 6 -1 15
-4 20 -6 28 -9 102 -28 115 -30 8 -1 35 -7 60 -12 25 -6 81 -14 125 -17 93 -8
89 -8 95 -6 3 1 70 3 150 6 80 2 155 6 166 9 12 2 38 7 58 10 30 5 88 17 146
31 29 7 145 43 185 58 l40 14 3 247 2 246 43 1 c94 1 109 16 106 102 -4 94 18
90 -452 91 -221 1 -414 -2 -429 -7 -31 -10 -41 -33 -43 -96 -2 -69 23 -89 110
-93 39 -1 76 1 83 5 6 5 12 5 12 0 0 -9 212 -9 228 1 6 3 13 3 16 -2 3 -5 19
-7 36 -4 l30 4 0 -170 0 -170 -73 -30 c-173 -72 -373 -86 -562 -38 -41 11
-162 61 -187 78 -14 10 -31 18 -37 18 -6 0 -11 5 -11 10 0 6 -5 10 -11 10 -11
0 -139 123 -139 134 0 3 -13 24 -28 48 -99 150 -123 371 -67 614 14 61 43 144
54 154 3 3 13 18 21 34 22 43 130 148 176 171 21 11 41 22 44 25 6 7 97 38
130 46 152 33 342 20 442 -32 15 -8 29 -13 30 -12 6 6 75 -47 113 -87 41 -43
59 -72 69 -115 4 -14 17 -38 31 -55 20 -24 33 -30 82 -35 154 -14 158 -6 157
266 -1 133 -6 208 -13 223 -17 30 -55 43 -126 40 -71 -2 -93 -12 -105 -44 l-9
-24 -68 24 c-66 23 -140 40 -219 51 -49 7 -342 12 -348 7z"/>
<path d="M120 6601 c0 -3 -12 -7 -26 -8 -44 -2 -58 -25 -57 -93 1 -92 -1 -92
226 -92 l107 0 0 -36 c1 -47 1 -1173 0 -1227 l0 -41 -127 1 c-191 2 -211 -8
-208 -102 3 -95 -37 -88 545 -88 582 0 542 -6 546 87 2 61 -7 84 -38 94 -13 5
-120 8 -238 9 l-215 0 0 220 0 220 255 1 c258 2 319 5 378 23 17 5 32 7 32 4
0 -3 7 0 15 7 8 7 15 10 15 6 0 -10 102 34 165 71 57 34 215 184 215 204 0 6
9 28 19 50 54 112 45 270 -21 387 -23 40 -129 148 -168 172 -133 78 -320 134
-440 131 -30 -1 -118 0 -258 2 -78 1 -142 -1 -142 -4 0 -4 -16 -3 -34 1 -19 4
-37 6 -40 3 -4 -5 -14 -5 -259 0 -81 1 -147 -1 -147 -4 0 -3 -22 -3 -50 1 -27
4 -50 4 -50 1z m1083 -215 c164 -58 274 -202 260 -339 -13 -128 -145 -255
-301 -290 -38 -9 -134 -13 -292 -13 l-235 1 -1 320 c0 176 1 325 3 331 3 8 82
10 261 9 213 -2 265 -5 305 -19z"/>
<path d="M2341 6594 c-37 -15 -40 -22 -43 -80 -4 -100 20 -110 260 -108 89 0
162 -2 162 -5 0 -2 -8 -23 -19 -45 -60 -133 -71 -158 -71 -169 0 -7 -4 -17 -9
-23 -5 -5 -21 -38 -36 -74 -27 -64 -45 -104 -91 -207 -13 -28 -24 -54 -24 -57
0 -3 -13 -33 -29 -68 -39 -84 -182 -410 -185 -423 -1 -5 -15 -37 -30 -70 -15
-33 -37 -81 -48 -107 -11 -27 -23 -48 -27 -49 -3 0 -41 -1 -83 -3 -100 -3
-118 -17 -118 -92 0 -29 5 -56 10 -59 6 -4 8 -10 6 -14 -14 -22 72 -27 399
-26 357 1 395 5 409 40 3 9 6 39 6 66 0 75 -19 84 -197 85 -79 1 -146 4 -150
7 -3 4 0 13 7 22 7 8 10 15 7 15 -6 0 33 94 64 153 11 20 18 37 16 37 -2 0 8
26 23 57 l27 57 187 2 c103 1 190 4 193 8 3 3 13 1 23 -4 10 -5 20 -7 23 -4 3
3 95 7 205 8 l200 3 57 -121 c94 -196 105 -220 105 -221 0 -1 -60 -3 -132 -3
-153 -1 -161 -2 -186 -25 -20 -18 -27 -89 -11 -119 24 -45 50 -49 403 -49 184
-1 343 2 354 5 25 8 42 57 37 106 -1 19 -3 41 -4 48 -2 18 -48 33 -111 35 -51
2 -55 4 -72 37 -19 38 -142 292 -258 535 -40 83 -95 197 -123 255 -29 58 -52
107 -52 110 -1 3 -34 73 -74 155 -40 83 -93 191 -117 242 -47 99 -82 142 -117
145 -12 1 -183 2 -380 3 -257 0 -366 -2 -386 -11z m730 -399 c55 -117 79 -170
84 -185 1 -3 16 -36 35 -75 104 -221 130 -278 125 -283 -3 -3 -155 -6 -339 -6
l-334 -1 9 23 c5 12 18 43 29 70 12 26 25 56 30 67 4 11 17 40 28 65 11 25 39
90 62 145 58 137 64 149 75 157 5 4 7 8 3 8 -7 0 12 45 69 170 l25 55 19 -40
c11 -22 47 -98 80 -170z"/>
<path d="M6300 6594 c-34 -15 -38 -25 -35 -98 2 -44 7 -63 21 -73 20 -15 19
-15 166 -16 l107 -1 -1 -72 c0 -39 2 -76 5 -81 3 -5 2 -15 -3 -22 -4 -8 -4
-27 0 -42 5 -16 5 -31 0 -34 -4 -3 -4 -21 0 -40 4 -19 4 -51 0 -70 -4 -19 -4
-37 1 -40 4 -3 6 -12 3 -19 -9 -23 -10 -176 -1 -176 5 0 5 -5 1 -11 -7 -12 -8
-189 -1 -196 3 -2 1 -20 -3 -39 -5 -19 -4 -37 1 -40 5 -3 6 -10 3 -16 -8 -13
-8 -284 1 -297 3 -6 3 -11 -2 -11 -4 0 -7 -21 -5 -47 l4 -48 -126 0 c-155 -1
-166 -7 -166 -96 0 -102 -22 -97 422 -97 360 0 381 1 399 19 22 22 27 73 14
136 -7 31 -34 37 -165 38 l-115 1 -1 218 c-2 194 0 220 15 235 10 9 44 39 76
66 32 28 64 56 72 64 18 17 77 9 147 -22 63 -27 74 -35 154 -117 79 -82 85
-88 108 -125 10 -16 21 -32 25 -35 12 -10 109 -162 109 -171 0 -5 4 -9 8 -9 5
0 15 -12 23 -27 8 -16 16 -30 19 -33 13 -13 50 -70 50 -78 0 -4 8 -17 18 -28
10 -10 25 -35 34 -55 34 -71 42 -74 207 -73 207 2 219 7 219 106 0 76 -20 90
-123 89 l-74 0 -180 267 c-104 155 -203 290 -233 320 -63 61 -128 111 -145
112 -7 0 -13 3 -13 8 0 8 -40 26 -85 38 -16 4 -33 8 -37 9 -5 2 -11 3 -14 4
-4 0 6 11 22 23 16 12 31 25 34 28 3 3 30 25 60 50 30 24 62 51 72 60 9 8 31
26 49 40 18 14 37 30 43 35 6 6 36 30 66 55 30 25 64 53 75 62 158 131 232
188 249 188 168 4 175 8 176 101 0 97 13 94 -366 95 -303 1 -326 0 -346 -18
-25 -21 -34 -97 -17 -140 13 -32 32 -38 129 -38 l75 0 -36 -33 c-20 -17 -56
-48 -80 -68 -24 -20 -64 -53 -89 -74 -25 -20 -46 -41 -48 -46 -2 -5 -10 -9
-17 -9 -7 0 -15 -4 -17 -9 -1 -5 -49 -47 -105 -94 -56 -47 -109 -91 -117 -98
-8 -8 -31 -27 -51 -44 -21 -16 -56 -47 -79 -67 -23 -21 -46 -38 -51 -38 -11 0
-15 563 -5 574 3 3 61 6 129 7 l123 1 17 29 c28 47 15 143 -22 155 -38 13
-745 11 -777 -2z"/>
<path d="M8622 6594 c-32 -13 -42 -37 -42 -100 0 -51 16 -73 60 -82 19 -4 144
-7 278 -7 162 1 242 -2 243 -9 5 -47 3 -1270 -2 -1278 -4 -5 -110 -9 -269 -9
-262 0 -262 0 -286 -24 -19 -19 -23 -33 -23 -80 2 -98 -47 -92 714 -91 648 1
655 1 675 22 40 39 29 151 -15 168 -9 3 -135 6 -280 6 l-263 0 2 648 1 647
265 3 c309 3 307 3 313 87 4 59 -7 91 -37 101 -11 4 -310 8 -663 9 -486 1
-649 -1 -671 -11z"/>
<path d="M10492 6597 c-60 -12 -67 -26 -63 -129 2 -48 37 -61 164 -61 62 -1
114 -4 117 -8 4 -5 5 -1240 1 -1284 -1 -6 -27 -10 -63 -10 -114 2 -137 -11
-140 -85 -5 -111 -13 -109 414 -109 190 0 356 3 367 6 37 10 56 81 42 155 -4
24 -56 32 -211 34 -91 1 -168 2 -171 3 -4 0 -6 262 -6 581 0 318 3 577 7 575
6 -4 92 -126 115 -164 6 -9 13 -18 16 -21 3 -3 39 -54 80 -115 40 -60 76 -112
79 -115 5 -5 64 -90 151 -220 24 -36 47 -67 50 -70 6 -5 147 -209 164 -237 6
-10 14 -22 18 -27 5 -6 35 -49 67 -96 32 -47 62 -90 67 -95 4 -6 30 -44 58
-85 85 -130 78 -125 194 -124 62 0 105 4 113 12 8 8 11 207 12 751 1 407 3
742 6 745 3 2 38 6 78 7 65 2 75 5 93 27 16 20 19 38 17 81 -5 88 1 86 -401
86 -329 -1 -338 -1 -358 -22 -25 -25 -33 -98 -15 -134 17 -36 58 -44 209 -43
l137 0 1 -60 c1 -109 0 -351 -2 -356 -1 -3 0 -9 1 -15 2 -12 2 -127 0 -140 -2
-5 -1 -14 0 -20 2 -9 2 -259 0 -469 l0 -69 -25 37 c-14 20 -25 41 -25 46 0 4
-4 10 -9 12 -5 2 -34 41 -65 88 -31 47 -77 117 -103 155 -25 39 -49 72 -52 75
-3 3 -10 12 -16 22 -15 25 -209 312 -215 318 -3 3 -18 25 -35 50 -16 25 -42
62 -58 83 -16 20 -25 37 -20 37 4 0 3 4 -3 8 -7 4 -50 63 -96 132 -47 69 -102
151 -124 182 -22 32 -52 63 -68 70 -33 14 -429 18 -494 5z"/>
<path d="M10752 4301 c-124 -42 -211 -173 -213 -319 -1 -37 0 -69 1 -72 1 -3
4 -17 6 -32 21 -129 139 -246 268 -266 62 -10 142 6 186 38 15 11 33 20 38 20
6 0 12 6 15 13 2 6 8 9 12 5 9 -8 -39 -108 -65 -135 -69 -72 -138 -113 -218
-128 -9 -2 -19 -4 -22 -5 -15 -6 -79 4 -107 15 -47 20 -84 7 -106 -37 -16 -34
-17 -40 -3 -66 14 -26 67 -61 106 -69 8 -2 42 -3 75 -3 52 -1 81 3 120 14 6 2
23 6 39 11 30 8 107 47 133 67 9 7 45 41 80 76 59 59 92 113 118 192 19 61 22
208 5 295 -30 159 -56 221 -119 295 -79 93 -228 132 -349 91z m186 -165 c43
-22 81 -74 97 -136 1 -3 5 -13 9 -22 15 -34 -60 -148 -126 -190 -31 -20 -89
-23 -121 -7 -39 20 -85 78 -93 117 -24 116 8 203 90 246 34 17 101 14 144 -8z"/>
<path d="M12256 4308 c-133 -29 -230 -167 -239 -336 -2 -34 -1 -65 2 -67 3 -3
6 -13 7 -22 6 -36 29 -103 36 -103 4 0 8 -4 8 -10 0 -5 8 -19 18 -31 87 -107
198 -150 311 -121 52 13 128 54 143 76 19 28 5 -25 -19 -74 -25 -49 -95 -130
-113 -130 -5 0 -15 -6 -22 -13 -48 -47 -179 -70 -245 -44 -21 8 -49 13 -62 11
-50 -8 -77 -75 -51 -124 23 -43 124 -70 217 -58 198 23 355 136 431 308 81
183 17 544 -119 667 -25 22 -103 65 -129 71 -40 8 -139 8 -174 0z m167 -177
c40 -25 68 -65 91 -131 14 -42 14 -47 -7 -89 -29 -58 -96 -124 -138 -137 -124
-38 -227 111 -182 264 13 46 67 103 106 113 41 10 94 2 130 -20z"/>
<path d="M13913 4304 c-59 -12 -145 -48 -179 -76 -213 -173 -272 -346 -221
-650 2 -10 6 -21 10 -24 4 -4 7 -17 7 -28 0 -36 55 -139 96 -180 41 -41 106
-74 164 -83 240 -38 411 99 401 322 -8 195 -147 339 -318 331 -67 -3 -135 -22
-160 -45 -54 -48 -56 -48 -48 -11 12 57 60 142 105 187 84 84 222 129 299 97
47 -20 68 -18 96 11 31 30 32 73 4 108 -35 46 -146 64 -256 41z m25 -563 c2
-6 9 -11 16 -11 15 0 61 -64 72 -100 16 -55 0 -139 -34 -170 -36 -33 -116 -51
-173 -39 -58 13 -95 44 -119 101 -21 48 -21 49 -2 91 20 45 93 124 127 137 27
11 109 4 113 -9z"/>
<path d="M9345 4290 c-38 -11 -82 -22 -97 -25 -15 -3 -37 -9 -50 -14 -13 -5
-26 -9 -31 -10 -28 -3 -67 -15 -100 -28 -45 -20 -62 -62 -40 -105 26 -53 68
-56 206 -14 26 8 48 11 49 8 0 -4 2 -153 2 -332 l2 -325 -41 -5 c-22 -3 -58
-3 -80 0 -50 7 -113 -10 -131 -35 -22 -30 -17 -73 11 -99 13 -12 30 -23 37
-23 41 -3 546 -3 558 0 58 12 81 39 73 87 -7 44 -52 72 -113 71 -85 -2 -144
-1 -147 2 -2 3 -4 198 -4 436 -1 394 -2 431 -18 430 -9 0 -47 -9 -86 -19z"/>
<path d="M344 4231 c-168 -57 -254 -227 -187 -371 27 -58 97 -130 126 -130 7
0 17 -4 22 -8 15 -13 107 -37 240 -63 148 -29 201 -112 119 -185 -65 -59 -189
-73 -292 -34 -73 27 -96 47 -112 94 -7 23 -24 45 -43 56 -26 16 -34 17 -61 6
-44 -18 -58 -54 -57 -149 2 -139 12 -159 81 -161 29 0 44 4 51 16 9 16 14 15
72 -6 163 -61 320 -51 442 30 98 64 132 149 112 274 -10 60 -68 137 -127 166
-41 21 -155 56 -220 68 -66 12 -127 28 -157 43 -65 30 -79 114 -28 155 14 11
32 26 40 34 8 9 19 13 24 9 5 -3 12 -1 15 3 3 5 33 10 66 11 48 1 74 -4 116
-24 55 -26 62 -35 94 -121 21 -57 86 -67 128 -19 20 24 22 36 22 134 0 94 -3
112 -20 134 -28 35 -53 41 -94 22 -32 -15 -37 -15 -66 0 -46 24 -65 27 -165
30 -65 2 -104 -2 -141 -14z"/>
<path d="M4786 4223 c-38 -14 -74 -29 -80 -34 -6 -5 -28 -23 -50 -39 -69 -53
-131 -154 -151 -246 -13 -56 -12 -268 0 -316 55 -206 233 -332 465 -330 41 1
86 3 100 6 14 3 39 8 55 12 98 21 208 103 220 166 5 28 2 40 -17 61 -40 46
-70 43 -138 -14 -33 -27 -60 -48 -60 -45 0 3 -15 -1 -34 -9 -38 -16 -128 -22
-197 -12 -103 15 -184 72 -223 157 -16 36 -20 67 -21 155 -2 141 11 185 76
262 26 30 109 89 109 77 0 -4 6 -2 13 3 15 13 165 14 173 2 3 -5 13 -9 23 -9
25 0 101 -57 101 -75 0 -8 4 -15 9 -15 4 0 8 -8 8 -17 -2 -46 40 -88 83 -84
59 6 77 49 74 181 -2 118 -2 115 -22 140 -23 29 -69 34 -101 11 -31 -20 -35
-20 -81 2 -50 23 -83 29 -180 33 -71 2 -97 -2 -154 -23z"/>
<path d="M1670 4222 c-36 -12 -57 -42 -54 -80 5 -67 30 -76 212 -73 l52 0 1
-127 c1 -70 1 -130 0 -134 -2 -15 -3 -102 -2 -195 1 -120 0 -158 -7 -165 -8
-8 -29 -10 -105 -8 -26 1 -66 -1 -88 -5 -35 -6 -43 -13 -56 -42 -23 -57 1
-100 62 -109 32 -5 528 -5 552 0 55 12 79 43 69 91 -3 11 -5 23 -5 27 -1 11
-42 31 -71 35 -14 2 -62 3 -106 3 l-82 1 2 312 1 312 75 2 c41 1 90 2 108 2
72 2 107 84 56 132 l-26 24 -286 1 c-158 1 -294 -1 -302 -4z"/>
<path d="M2982 4210 c-22 -14 -28 -25 -30 -58 -3 -50 26 -82 74 -82 51 0 64
-8 54 -34 -4 -13 -5 -28 0 -35 4 -7 4 -28 0 -47 -4 -19 -4 -36 1 -39 4 -3 5
-16 0 -28 -5 -12 -5 -31 -1 -42 4 -11 4 -34 -1 -52 -4 -18 -3 -35 2 -38 4 -3
5 -16 1 -28 -4 -12 -6 -40 -5 -62 4 -59 4 -85 2 -141 -1 -28 1 -55 4 -61 9
-14 2 -19 -40 -27 -67 -15 -84 -110 -24 -140 32 -17 341 -22 341 -5 0 5 6 9
13 9 8 0 19 12 26 26 19 41 -2 90 -43 104 -19 6 -38 10 -42 9 -5 -1 -23 -1
-40 0 l-30 1 0 243 c0 133 1 234 3 225 3 -10 9 -18 14 -18 5 0 9 -6 9 -14 0
-8 4 -16 8 -18 4 -1 46 -64 92 -138 47 -74 87 -137 91 -140 3 -3 8 -12 12 -20
4 -8 45 -73 91 -145 l83 -130 82 -3 81 -3 0 396 0 395 24 0 c33 0 65 29 72 66
5 24 0 37 -19 60 l-25 29 -154 2 c-135 2 -159 -1 -185 -17 -35 -21 -45 -56
-27 -98 14 -34 28 -40 102 -43 l52 -3 0 -240 0 -241 -42 65 c-23 36 -46 68
-52 72 -6 4 -7 8 -3 8 5 0 -5 19 -21 43 -55 77 -142 218 -142 227 0 6 -3 10
-8 10 -4 0 -18 20 -32 45 -14 25 -28 45 -32 45 -5 0 -8 4 -8 9 0 19 -63 111
-79 115 -9 3 -62 5 -118 4 -78 -1 -110 -5 -131 -18z"/>
<path d="M5989 4211 c-21 -10 -34 -25 -36 -40 -2 -14 -5 -27 -8 -29 -8 -8 28
-62 45 -67 8 -2 32 -5 53 -7 35 -2 37 -4 38 -38 1 -19 1 -39 0 -44 -5 -25 -1
-327 4 -335 3 -5 2 -12 -3 -15 -4 -3 -5 -30 -2 -60 3 -31 3 -56 0 -56 -3 0 -4
-18 -2 -40 2 -22 0 -40 -4 -41 -78 -5 -89 -8 -106 -29 -35 -43 -11 -118 40
-127 31 -6 782 -4 792 2 13 8 9 280 -4 306 -14 29 -64 49 -93 38 -36 -13 -52
-50 -55 -123 l-2 -67 -31 1 c-16 1 -34 1 -40 0 -5 -1 -41 -1 -80 0 -38 1 -77
1 -85 1 -14 -1 -41 -1 -132 1 l-37 1 0 117 0 118 69 -1 c54 -1 68 -5 68 -17 1
-8 3 -24 6 -35 2 -11 5 -23 5 -28 1 -4 15 -16 32 -26 25 -15 37 -17 61 -9 51
18 59 43 60 185 0 148 0 149 -29 182 -15 17 -31 24 -54 23 -51 -1 -74 -32 -78
-102 -1 -13 -15 -16 -68 -15 l-68 0 0 103 c0 56 -3 102 -7 102 -4 0 -5 6 -2
14 7 18 374 21 374 3 4 -111 9 -139 29 -158 11 -11 21 -17 21 -13 0 3 6 2 13
-3 19 -15 58 -1 81 30 18 24 20 42 20 171 l1 144 -377 0 c-330 0 -381 -2 -409
-17z"/>
</g>
</svg>
